<svg width="32" height="32" viewBox="0 0 32 32" fill="none" xmlns="http://www.w3.org/2000/svg">
<path d="M0 12C0 5.37258 5.37258 0 12 0H20C26.6274 0 32 5.37258 32 12V20C32 26.6274 26.6274 32 20 32H12C5.37258 32 0 26.6274 0 20V12Z" fill="#FEFEFF"/>
<path d="M17 7C17.2549 7.00028 17.5 7.09788 17.6854 7.27285C17.8707 7.44782 17.9822 7.68695 17.9972 7.94139C18.0121 8.19584 17.9293 8.44638 17.7657 8.64183C17.6021 8.83729 17.3701 8.9629 17.117 8.993L17 9H9V23H23V15C23.0003 14.7451 23.0979 14.5 23.2728 14.3146C23.4478 14.1293 23.687 14.0178 23.9414 14.0028C24.1958 13.9879 24.4464 14.0707 24.6418 14.2343C24.8373 14.3979 24.9629 14.6299 24.993 14.883L25 15V23C25.0002 23.5046 24.8096 23.9906 24.4665 24.3605C24.1234 24.7305 23.6532 24.9572 23.15 24.995L23 25H9C8.49542 25.0002 8.00943 24.8096 7.63945 24.4665C7.26947 24.1234 7.04284 23.6532 7.005 23.15L7 23V9C6.99984 8.49542 7.19041 8.00943 7.5335 7.63945C7.87659 7.26947 8.34684 7.04284 8.85 7.005L9 7H17ZM23.243 7.343C23.423 7.16365 23.6644 7.05953 23.9184 7.05177C24.1723 7.04402 24.4197 7.13322 24.6103 7.30125C24.8008 7.46928 24.9203 7.70355 24.9444 7.95647C24.9685 8.2094 24.8954 8.46201 24.74 8.663L24.657 8.758L14.757 18.657C14.577 18.8363 14.3356 18.9405 14.0816 18.9482C13.8277 18.956 13.5803 18.8668 13.3897 18.6988C13.1992 18.5307 13.0797 18.2964 13.0556 18.0435C13.0315 17.7906 13.1046 17.538 13.26 17.337L13.343 17.243L23.243 7.343Z" fill="#008000"/>
</svg>
