<svg width="50" height="50" viewBox="0 0 50 50" fill="none" xmlns="http://www.w3.org/2000/svg">
<rect x="0.5" y="0.5" width="49" height="49" rx="24.5" stroke="#008000"/>
<path fill-rule="evenodd" clip-rule="evenodd" d="M25.0002 16.3333C23.372 16.3337 21.7769 16.7927 20.3975 17.6577C19.0181 18.5228 17.9103 19.7589 17.201 21.2244C16.4917 22.69 16.2096 24.3257 16.387 25.9442C16.5644 27.5626 17.1941 29.0984 18.204 30.3756C19.2139 31.6527 20.5631 32.6195 22.0971 33.1653C23.6311 33.711 25.2878 33.8136 26.8774 33.4613C28.467 33.109 29.9252 32.3161 31.0849 31.1733C32.2447 30.0305 33.0591 28.5842 33.4348 27H26.3335C25.8031 27 25.2944 26.7893 24.9193 26.4142C24.5442 26.0391 24.3335 25.5304 24.3335 25C24.3335 24.4695 24.5442 23.9608 24.9193 23.5858C25.2944 23.2107 25.8031 23 26.3335 23H35.6668C36.1973 23 36.706 23.2107 37.081 23.5858C37.4561 23.9608 37.6668 24.4695 37.6668 25C37.6668 27.929 36.6517 30.7675 34.7944 33.0322C32.937 35.297 30.3522 36.8481 27.4798 37.4215C24.6075 37.9949 21.6252 37.5551 19.0407 36.1771C16.4561 34.799 14.429 32.5679 13.3044 29.8633C12.1798 27.1588 12.0272 24.1482 12.8726 21.3438C13.718 18.5395 15.5092 16.1148 17.9412 14.4825C20.3732 12.8502 23.2958 12.1112 26.2114 12.3913C29.1269 12.6714 31.8554 13.9532 33.9322 16.0186C34.1184 16.2039 34.2663 16.424 34.3674 16.6664C34.4686 16.9088 34.521 17.1688 34.5217 17.4314C34.5223 17.6941 34.4713 17.9543 34.3714 18.1973C34.2715 18.4402 34.1248 18.6611 33.9395 18.8473C33.7542 19.0335 33.5341 19.1814 33.2917 19.2826C33.0493 19.3837 32.7894 19.4361 32.5267 19.4368C31.9962 19.4382 31.4869 19.2288 31.1108 18.8546C30.3078 18.0536 29.3549 17.4186 28.3064 16.986C27.2579 16.5533 26.1344 16.3316 25.0002 16.3333Z" fill="#008000"/>
</svg>
